<svg xmlns="http://www.w3.org/2000/svg" version="1.1" xmlns:xlink="http://www.w3.org/1999/xlink" xmlns:svgjs="http://svgjs.dev/svgjs" width="2000" height="2250" viewBox="0 0 2000 2250"><g transform="matrix(1,0,0,1,0.00014687500004129106,0)"><svg viewBox="0 0 320 360" data-background-color="#abb6c8" preserveAspectRatio="xMidYMid meet" height="2250" width="2000" xmlns="http://www.w3.org/2000/svg" xmlns:xlink="http://www.w3.org/1999/xlink"><g id="tight-bounds" transform="matrix(1,0,0,1,0.000023499999997511622,0)"><svg viewBox="0 0 320 360" height="360" width="320"><g><svg></svg></g><g><svg viewBox="0 0 320 360" height="360" width="320"><g><path transform="translate(-74.99272,-51.79039) scale(4.65793,4.65793)" d="M20.6 59.9l0.8 1-0.4-1.3c-0.1-0.6-0.8 0.1-0.4 0.3M21.5 59.3c0.3 0.5 0.6 1 0.6 1.5 0 0.7 0.6 1 1.1 1.2-0.7-0.8-1.1-3-1.7-2.7M59.9 16.9c1.7 0 3.3-0.2 5.1 0.2 4.4 1.1 8.1 3.3 10.6 6.4l7 11.2c0.3 2.8 0.9 5.9 0.8 9.3 0.7 0 0.6-1 1.4-1.2-0.8 2-1.2 4.5-1.4 7.4-0.5-1.6 0-4 0.1-5.3-0.7 1.1-1.1 0.3-1.1-0.2 0.1-0.8-0.3-0.7-0.6-1-1.1-1-1.8-2.1-2.6-3.8 0.5-1.3 0.6-3.2-1-4.2-0.5-0.3-1.1-0.8-1.4-1.6-0.4-1.1-1.1-2.4-0.9-4.1 0.1-0.5-1.5 1.1-2.4 0.4-3.9-2.7-7.8-5.8-12.5-8.4-2.5 0-4.3-0.9-5.2-2-0.8-1-0.2-2.3 1-2.4 0.7 0 1.5-0.2 2.1 0.2 0.1-0.4 0.5-0.9 1-0.9M50 14.6l0.2 0.1c1 0.2 1.5 1.6 2.6 1.1 0 0.7 0.1 1.4-0.1 1.9-0.3 0.8-1.2 0.8-1.9 0.8-6.7-0.4-10.6 2.4-14.7 4.8-1.1 0.7-2.3 1.2-3.2 2.1-4.3 4-9 7.7-10.1 15.1l-0.9 8.2c-0.1 0.9-1.1 1.8-0.9 2.9l0.7 4.9c-0.7-0.7-1.1 0.2-0.9 0.6 0.1 0.3 0.5 1.3 1.1 0.4 0.8 1.5 1.6 4.4 2.7 5.7 3.4 4 7.8 7.6 11.4 11.2 0.9-0.2 1.6-0.2 1.8-0.8 0.3 0.6-0.3 1.2-0.8 1.3 1.6 1 3.4 1.9 5.8 2.1 3.1 0.2 6 0.7 8.7 1.4 1.4-0.4 2.8-0.6 4.3-0.7 0.5 0 0.8-0.8 1.4-1l0.1-1c0.6 0.9 0.5-0.3 0.1-0.9 0.7 0.6 0.9 1.1 1.2 1.5 0-0.3 0.8-1.4 0.8-0.1l0.2-1.3c0.3-0.2 0.4 1.1 0.7 0.2 0.3-0.9 0.9-0.2 1.5-0.5-0.2 0.4-0.1 1.2 0.6 0.7l0.8-0.7c0.5 1.2 1.3 0.7 1.7 0.5 4.4-2.8 8.8-6.1 13-9.4l-0.1 1.3 0.5-1.6c0.5 0.5 0.9 0.1 1.1-0.2 0.6-1 1.4-2 2.7-2.9-1.6 4.3-3.5 7.7-5.9 10.5l-1 1.2c0 0.7-0.2 1.6-1 1.7-0.4 0.1-1.2-0.2-1.8 0.4-0.3 0.4 0.7 1.2-0.1 0.6-0.7-0.5-1.4 0-2.2 0.2-0.6 0.2 0.4 0.8 0.6 1.2 0.2 0.4 0.4 0.8 0.3 1.3l-1.1-1.2c-1.3 0.7-2.1 2-3.2 3-0.5 0.4-0.3 1.1-0.3 1.7-0.7 0-1.5-0.2-1.9 0.2-0.3 0.4-0.2 1-0.2 1.6-1-0.1-1.1-1.6-2-1.3-0.9 0.2-1.9 0.3-2.7 0.8 0.6 1.2-1 0.5-0.8 0.7-1.5-0.9-2.8-1.6-4.4-1-3.4-1.1-7.6-0.6-10.7-0.2 0-0.5 0.1-1-0.1-1.1-0.2 0.5-0.8 0.3-0.7 0.3-1.9-1.3-3.8-2.1-5.8-3.2-1.8 0.2-3.5-0.7-4-1.2-1.4-1.3-3-0.6-4.3-0.9-2.8-0.7-3.8-3.6-4.1-5.6-0.2-1-1-1.4-1.3-1.3-1.3-4.2-3.3-8-4.9-11.9-0.4-1-0.3-2-0.3-3.1 0.5 0.2 1 0.1 0.9-0.6-0.5-3.3-1.7-5.8-3-8.2 0.7-3.4 0.8-7.4 2.4-10.4 1.4-2.7 4-4.1 5.8-6.4 0.6-0.8 0.6-1.9 1.2-2.6 2-2 4-4.1 6.2-5.9 1-0.8 2.2 0 3.7-0.3 0.5-1.8 2.5-3.4 4.4-2.9 0.8 0.2 2.4-1.9 2.9-2.1 0.8-0.3 0.4 0.8 0.4 1.5 1.9-1.5 4.5-2.3 6.9-3.2" fill="#5d7599" fill-rule="nonzero" stroke="none" stroke-width="1" stroke-linecap="butt" stroke-linejoin="miter" stroke-miterlimit="10" stroke-dasharray="" stroke-dashoffset="0" font-family="none" font-weight="none" font-size="none" text-anchor="none" style="mix-blend-mode: normal" data-fill-palette-color="tertiary"></path></g><g transform="matrix(1,0,0,1,64,119.09549945871636)"><svg viewBox="0 0 192 121.80900108256728" height="121.80900108256728" width="192"><g><svg viewBox="0 0 192 121.80900108256728" height="121.80900108256728" width="192"><g><svg viewBox="0 0 192 121.80900108256728" height="121.80900108256728" width="192"><g transform="matrix(1,0,0,1,0,72.60303731498442)"><svg viewBox="0 0 192 49.20596376758285" height="49.20596376758285" width="192"><g id="textblocktransform"><svg viewBox="0 0 192 49.20596376758285" height="49.20596376758285" width="192" id="textblock"><g><svg viewBox="0 0 192 31.525968231304653" height="31.525968231304653" width="192"><g transform="matrix(1,0,0,1,0,0)"><svg width="192" viewBox="1.85 -35.5 280.12 46" height="31.525968231304653" data-palette-color="#5d7599"><path d="M4.7-8.9Q4.85-7.2 5.98-5.65 7.1-4.1 9.08-3.13 11.05-2.15 13.6-2.15L13.6-2.15Q17.45-2.15 20.03-3.88 22.6-5.6 22.6-9.35L22.6-9.35Q22.6-11.55 21.35-13.03 20.1-14.5 18.25-15.38 16.4-16.25 13.2-17.4L13.2-17.4Q9.75-18.6 7.68-19.63 5.6-20.65 4.17-22.4 2.75-24.15 2.75-26.9L2.75-26.9Q2.75-29.1 4-31.08 5.25-33.05 7.78-34.27 10.3-35.5 14-35.5L14-35.5Q16.45-35.5 18.05-35.15 19.65-34.8 21.3-34L21.3-34 20.45-31.35Q17.6-32.8 14.1-32.8L14.1-32.8Q10.25-32.8 7.95-31.2 5.65-29.6 5.65-26.75L5.65-26.75Q5.65-24.95 6.8-23.73 7.95-22.5 9.63-21.75 11.3-21 14.3-19.95L14.3-19.95Q17.95-18.7 20.2-17.63 22.45-16.55 24.03-14.58 25.6-12.6 25.6-9.6L25.6-9.6Q25.6-5 22.68-2.23 19.75 0.55 13.65 0.55L13.65 0.55Q9.95 0.55 7.33-0.83 4.7-2.2 3.33-4.38 1.95-6.55 1.85-8.9L1.85-8.9 4.7-8.9ZM46.55-1.75Q44.75-0.6 42.45 0 40.15 0.6 37.85 0.6L37.85 0.6Q34.15 0.6 31.97-1.23 29.8-3.05 29.8-6.7L29.8-6.7 29.8-16.95Q29.8-21 32.32-23.25 34.85-25.5 39-25.5L39-25.5Q43.15-25.5 45.47-23.28 47.8-21.05 47.8-17.1L47.8-17.1 47.8-10.6 32.6-9.75 32.6-6.7Q32.6-4.3 34.15-3.1 35.7-1.9 38.2-1.9L38.2-1.9Q41.7-1.9 45.45-3.9L45.45-3.9 46.55-1.75ZM45-17.45Q45-20.55 43.05-21.83 41.1-23.1 38.95-23.1L38.95-23.1Q36.2-23.1 34.4-21.6 32.6-20.1 32.6-16.9L32.6-16.9 32.6-12.5 45-13.1 45-17.45ZM52.8 0L52.8-25.05 55.6-25.05 55.45-23.3Q57.8-25.5 61.6-25.5L61.6-25.5Q62.95-25.5 65.3-25.05L65.3-25.05 64.55-22.5Q62.95-23 61.2-23L61.2-23Q58.9-23 57.25-22.15 55.6-21.3 55.6-19.6L55.6-19.6 55.6 0 52.8 0ZM82.59-1.75Q80.79-0.6 78.49 0 76.19 0.6 73.89 0.6L73.89 0.6Q70.19 0.6 68.02-1.23 65.84-3.05 65.84-6.7L65.84-6.7 65.84-16.95Q65.84-21 68.37-23.25 70.89-25.5 75.04-25.5L75.04-25.5Q79.19-25.5 81.52-23.28 83.84-21.05 83.84-17.1L83.84-17.1 83.84-10.6 68.64-9.75 68.64-6.7Q68.64-4.3 70.19-3.1 71.74-1.9 74.24-1.9L74.24-1.9Q77.74-1.9 81.49-3.9L81.49-3.9 82.59-1.75ZM81.04-17.45Q81.04-20.55 79.09-21.83 77.14-23.1 74.99-23.1L74.99-23.1Q72.24-23.1 70.44-21.6 68.64-20.1 68.64-16.9L68.64-16.9 68.64-12.5 81.04-13.1 81.04-17.45ZM104.69 0L104.69-17.15Q104.69-20.2 102.92-21.58 101.14-22.95 98.34-22.95L98.34-22.95Q96.64-22.95 94.89-22.48 93.14-22 91.79-21.25L91.79-21.25 91.79 0 88.99 0 88.99-25.05 91.79-25.05 91.59-23.35Q92.79-24.4 94.64-24.93 96.49-25.45 98.49-25.45L98.49-25.45Q101.24-25.45 103.19-24.55L103.19-24.55Q105.19-23.65 106.32-21.85 107.44-20.05 107.44-17.3L107.44-17.3 107.44 0 104.69 0ZM129.29-1.75Q127.49-0.6 125.19 0 122.89 0.6 120.59 0.6L120.59 0.6Q116.89 0.6 114.71-1.23 112.54-3.05 112.54-6.7L112.54-6.7 112.54-16.95Q112.54-21 115.06-23.25 117.59-25.5 121.74-25.5L121.74-25.5Q125.89-25.5 128.21-23.28 130.54-21.05 130.54-17.1L130.54-17.1 130.54-10.6 115.34-9.75 115.34-6.7Q115.34-4.3 116.89-3.1 118.44-1.9 120.94-1.9L120.94-1.9Q124.44-1.9 128.19-3.9L128.19-3.9 129.29-1.75ZM127.74-17.45Q127.74-20.55 125.79-21.83 123.84-23.1 121.69-23.1L121.69-23.1Q118.94-23.1 117.14-21.6 115.34-20.1 115.34-16.9L115.34-16.9 115.34-12.5 127.74-13.1 127.74-17.45ZM147.08 0Q148.73 0 149.96-1.35 151.18-2.7 151.18-5.7L151.18-5.7 151.18-32.45 147.83-32.55 147.83-35 154.03-35 154.03-5.9Q154.03-2.2 152.36-0.18 150.68 1.85 147.73 1.85L147.73 1.85 147.08 0ZM175.73-9.2Q175.73-5 173.43-2.25 171.13 0.5 166.48 0.5L166.48 0.5Q161.83 0.5 159.46-2.27 157.08-5.05 157.08-9.2L157.08-9.2 157.08-15.8Q157.08-20.55 159.51-23.08 161.93-25.6 166.48-25.6L166.48-25.6Q170.83-25.6 173.28-22.98 175.73-20.35 175.73-15.8L175.73-15.8 175.73-9.2ZM172.93-15.8Q172.93-19.55 171.21-21.3 169.48-23.05 166.48-23.05L166.48-23.05Q163.38-23.05 161.63-21.3 159.88-19.55 159.88-15.8L159.88-15.8 159.88-8.7Q159.88-5.7 161.66-3.85 163.43-2 166.48-2L166.48-2Q169.58-2 171.26-3.83 172.93-5.65 172.93-8.7L172.93-8.7 172.93-15.8ZM195.08 0L195.28-2.55Q194.08-1.05 192.25-0.25 190.43 0.55 188.58 0.55L188.58 0.55Q179.18 0.55 179.18-8.6L179.18-8.6 179.18-25.05 181.98-25.05 181.98-8.25Q181.98-5.05 183.75-3.5 185.53-1.95 188.58-1.95L188.58-1.95Q191.58-1.95 193.3-3.48 195.03-5 195.03-8.25L195.03-8.25 195.03-25.05 197.83-25.05 197.83 0 195.08 0ZM202.78 0L202.78-25.05 205.58-25.05 205.43-23.3Q207.78-25.5 211.58-25.5L211.58-25.5Q212.93-25.5 215.28-25.05L215.28-25.05 214.53-22.5Q212.93-23 211.18-23L211.18-23Q208.88-23 207.23-22.15 205.58-21.3 205.58-19.6L205.58-19.6 205.58 0 202.78 0ZM233.67 0L233.67-17.15Q233.67-20.2 231.9-21.58 230.12-22.95 227.32-22.95L227.32-22.95Q225.62-22.95 223.87-22.48 222.12-22 220.77-21.25L220.77-21.25 220.77 0 217.97 0 217.97-25.05 220.77-25.05 220.57-23.35Q221.77-24.4 223.62-24.93 225.47-25.45 227.47-25.45L227.47-25.45Q230.22-25.45 232.17-24.55L232.17-24.55Q234.17-23.65 235.3-21.85 236.42-20.05 236.42-17.3L236.42-17.3 236.42 0 233.67 0ZM258.27-1.75Q256.47-0.6 254.17 0 251.87 0.6 249.57 0.6L249.57 0.6Q245.87 0.6 243.7-1.23 241.52-3.05 241.52-6.7L241.52-6.7 241.52-16.95Q241.52-21 244.05-23.25 246.57-25.5 250.72-25.5L250.72-25.5Q254.87-25.5 257.2-23.28 259.52-21.05 259.52-17.1L259.52-17.1 259.52-10.6 244.32-9.75 244.32-6.7Q244.32-4.3 245.87-3.1 247.42-1.9 249.92-1.9L249.92-1.9Q253.42-1.9 257.17-3.9L257.17-3.9 258.27-1.75ZM256.72-17.45Q256.72-20.55 254.77-21.83 252.82-23.1 250.67-23.1L250.67-23.1Q247.92-23.1 246.12-21.6 244.32-20.1 244.32-16.9L244.32-16.9 244.32-12.5 256.72-13.1 256.72-17.45ZM274.27 8.35Q277.62 7.1 277.62 3.15L277.62 3.15 277.62-2.45Q276.67-0.85 274.77-0.13 272.87 0.6 270.67 0.6L270.67 0.6Q266.27 0.6 263.89-1.78 261.52-4.15 261.52-8.8L261.52-8.8 261.52-25.05 264.22-25.05 264.22-8.3Q264.22-5.1 265.97-3.53 267.72-1.95 270.67-1.95L270.67-1.95Q273.77-1.95 275.67-3.5 277.57-5.05 277.57-8.3L277.57-8.3 277.57-18.15Q277.57-20.55 277.72-21.73 277.87-22.9 278.64-23.93 279.42-24.95 281.22-25.5L281.22-25.5 281.97-23.6Q280.27-22.85 280.27-20.1L280.27-20.1 280.27 3.05Q280.27 6.1 279.07 7.85 277.87 9.6 275.02 10.5L275.02 10.5 274.27 8.35Z" opacity="1" transform="matrix(1,0,0,1,0,0)" fill="#5d7599" class="wordmark-text-0" data-fill-palette-color="primary" id="text-0"></path></svg></g></svg></g><g transform="matrix(1,0,0,1,0,36.12636361948955)"><svg viewBox="0 0 192 13.079600148093299" height="13.079600148093299" width="192"><g transform="matrix(1,0,0,1,0,0)"><svg width="192" viewBox="3.9 -35.5 675.16 46" height="13.079600148093299" data-palette-color="#5d7599"><path d="M26.3 0L21.35-29.95 16.4 0 12.15 0 3.9-35 6.9-35 14.05-3.45 19.4-35 23.3-35 28.65-3.45 35.7-35 38.7-35 30.55 0 26.3 0ZM58.25 0L58.25-17.15Q58.25-20.2 56.47-21.58 54.7-22.95 51.9-22.95L51.9-22.95Q50.2-22.95 48.45-22.48 46.7-22 45.35-21.25L45.35-21.25 45.35 0 42.55 0 42.55-35 45.35-35 45.35-23.7Q46.6-24.55 48.35-25.03 50.1-25.5 52-25.5L52-25.5Q54.6-25.5 56.75-24.55L56.75-24.55Q58.75-23.65 59.87-21.85 61-20.05 61-17.3L61-17.3 61 0 58.25 0ZM82.5-1.75Q80.7-0.6 78.4 0 76.09 0.6 73.8 0.6L73.8 0.6Q70.09 0.6 67.92-1.23 65.75-3.05 65.75-6.7L65.75-6.7 65.75-16.95Q65.75-21 68.27-23.25 70.8-25.5 74.95-25.5L74.95-25.5Q79.09-25.5 81.42-23.28 83.75-21.05 83.75-17.1L83.75-17.1 83.75-10.6 68.55-9.75 68.55-6.7Q68.55-4.3 70.09-3.1 71.65-1.9 74.15-1.9L74.15-1.9Q77.65-1.9 81.4-3.9L81.4-3.9 82.5-1.75ZM80.95-17.45Q80.95-20.55 79-21.83 77.05-23.1 74.9-23.1L74.9-23.1Q72.15-23.1 70.34-21.6 68.55-20.1 68.55-16.9L68.55-16.9 68.55-12.5 80.95-13.1 80.95-17.45ZM88.74 0L88.74-25.05 91.54-25.05 91.39-23.3Q93.74-25.5 97.54-25.5L97.54-25.5Q98.89-25.5 101.24-25.05L101.24-25.05 100.49-22.5Q98.89-23 97.14-23L97.14-23Q94.84-23 93.19-22.15 91.54-21.3 91.54-19.6L91.54-19.6 91.54 0 88.74 0ZM118.54-1.75Q116.74-0.6 114.44 0 112.14 0.6 109.84 0.6L109.84 0.6Q106.14 0.6 103.97-1.23 101.79-3.05 101.79-6.7L101.79-6.7 101.79-16.95Q101.79-21 104.32-23.25 106.84-25.5 110.99-25.5L110.99-25.5Q115.14-25.5 117.47-23.28 119.79-21.05 119.79-17.1L119.79-17.1 119.79-10.6 104.59-9.75 104.59-6.7Q104.59-4.3 106.14-3.1 107.69-1.9 110.19-1.9L110.19-1.9Q113.69-1.9 117.44-3.9L117.44-3.9 118.54-1.75ZM116.99-17.45Q116.99-20.55 115.04-21.83 113.09-23.1 110.94-23.1L110.94-23.1Q108.19-23.1 106.39-21.6 104.59-20.1 104.59-16.9L104.59-16.9 104.59-12.5 116.99-13.1 116.99-17.45ZM138.69 0L138.69-25.05 141.49-25.05 141.34-23.3Q143.69-25.5 147.49-25.5L147.49-25.5Q148.84-25.5 151.19-25.05L151.19-25.05 150.44-22.5Q148.84-23 147.09-23L147.09-23Q144.79-23 143.14-22.15 141.49-21.3 141.49-19.6L141.49-19.6 141.49 0 138.69 0ZM168.48-1.75Q166.68-0.6 164.38 0 162.08 0.6 159.78 0.6L159.78 0.6Q156.08 0.6 153.91-1.23 151.73-3.05 151.73-6.7L151.73-6.7 151.73-16.95Q151.73-21 154.26-23.25 156.78-25.5 160.93-25.5L160.93-25.5Q165.08-25.5 167.41-23.28 169.73-21.05 169.73-17.1L169.73-17.1 169.73-10.6 154.53-9.75 154.53-6.7Q154.53-4.3 156.08-3.1 157.63-1.9 160.13-1.9L160.13-1.9Q163.63-1.9 167.38-3.9L167.38-3.9 168.48-1.75ZM166.93-17.45Q166.93-20.55 164.98-21.83 163.03-23.1 160.88-23.1L160.88-23.1Q158.13-23.1 156.33-21.6 154.53-20.1 154.53-16.9L154.53-16.9 154.53-12.5 166.93-13.1 166.93-17.45ZM175.58 0L175.58-35 178.38-35 178.38 0 175.58 0ZM203.48 0Q198.08 0.55 195.68 0.55L195.68 0.55Q190.43 0.55 187.33-1.4 184.23-3.35 184.23-8.45L184.23-8.45 184.23-12.6Q184.23-17.55 187.68-19.25L187.68-19.25Q189.33-20.1 191.88-20.1L191.88-20.1Q194.23-20.1 196.63-19.33 199.03-18.55 200.68-17.3L200.68-17.3Q200.68-20.05 199.08-21.68 197.48-23.3 192.93-23.3L192.93-23.3 193.08-25.45Q197.88-25.45 200.15-23.93 202.43-22.4 202.95-20.3 203.48-18.2 203.48-14.9L203.48-14.9 203.48 0ZM200.68-15.15Q198.63-16.1 196.3-16.8 193.98-17.5 192.03-17.5L192.03-17.5Q186.98-17.5 186.98-12.45L186.98-12.45 186.98-8.1Q186.98-4.85 189.23-3.38 191.48-1.9 195.63-1.9L195.63-1.9Q197.78-1.9 200.68-2.3L200.68-2.3 200.68-15.15ZM224.78 0L218.63-9.85 212.47 0 209.18 0 216.97-12.45 209.18-25.05 212.33-25.05 218.63-15.05 224.93-25.05 228.08-25.05 220.22-12.45 228.08 0 224.78 0ZM250.82 0Q245.42 0.55 243.02 0.55L243.02 0.55Q237.77 0.55 234.67-1.4 231.57-3.35 231.57-8.45L231.57-8.45 231.57-12.6Q231.57-17.55 235.02-19.25L235.02-19.25Q236.67-20.1 239.22-20.1L239.22-20.1Q241.57-20.1 243.97-19.33 246.37-18.55 248.02-17.3L248.02-17.3Q248.02-20.05 246.42-21.68 244.82-23.3 240.27-23.3L240.27-23.3 240.42-25.45Q245.22-25.45 247.5-23.93 249.77-22.4 250.3-20.3 250.82-18.2 250.82-14.9L250.82-14.9 250.82 0ZM248.02-15.15Q245.97-16.1 243.65-16.8 241.32-17.5 239.37-17.5L239.37-17.5Q234.32-17.5 234.32-12.45L234.32-12.45 234.32-8.1Q234.32-4.85 236.57-3.38 238.82-1.9 242.97-1.9L242.97-1.9Q245.12-1.9 248.02-2.3L248.02-2.3 248.02-15.15ZM258.82 0.65Q256.02-0.15 254.77-1.9 253.52-3.65 253.52-6.6L253.52-6.6 253.52-35 256.32-35 256.32-25.05 262.32-25.05 261.12-22.4 256.32-22.4 256.32-6.6Q256.32-2.6 259.62-1.5L259.62-1.5 258.82 0.65ZM269.07-32.15Q268.42-32.15 267.89-32.68 267.37-33.2 267.37-33.85L267.37-33.85Q267.37-34.5 267.87-35 268.37-35.5 269.07-35.5L269.07-35.5Q269.77-35.5 270.24-35.02 270.72-34.55 270.72-33.85L270.72-33.85Q270.72-33.15 270.22-32.65 269.72-32.15 269.07-32.15L269.07-32.15ZM267.62 0L267.62-25.05 270.42-25.05 270.42 0 267.62 0ZM297.27-9.2Q297.27-5 294.97-2.25 292.67 0.5 288.02 0.5L288.02 0.5Q283.37 0.5 280.99-2.27 278.62-5.05 278.62-9.2L278.62-9.2 278.62-15.8Q278.62-20.55 281.04-23.08 283.47-25.6 288.02-25.6L288.02-25.6Q292.37-25.6 294.82-22.98 297.27-20.35 297.27-15.8L297.27-15.8 297.27-9.2ZM294.47-15.8Q294.47-19.55 292.74-21.3 291.02-23.05 288.02-23.05L288.02-23.05Q284.92-23.05 283.17-21.3 281.42-19.55 281.42-15.8L281.42-15.8 281.42-8.7Q281.42-5.7 283.19-3.85 284.97-2 288.02-2L288.02-2Q291.12-2 292.79-3.83 294.47-5.65 294.47-8.7L294.47-8.7 294.47-15.8ZM317.81 0L317.81-17.15Q317.81-20.2 316.04-21.58 314.26-22.95 311.46-22.95L311.46-22.95Q309.76-22.95 308.01-22.48 306.26-22 304.91-21.25L304.91-21.25 304.91 0 302.11 0 302.11-25.05 304.91-25.05 304.71-23.35Q305.91-24.4 307.76-24.93 309.61-25.45 311.61-25.45L311.61-25.45Q314.36-25.45 316.31-24.55L316.31-24.55Q318.31-23.65 319.44-21.85 320.56-20.05 320.56-17.3L320.56-17.3 320.56 0 317.81 0ZM370.16 0L370.16-17.15Q370.16-20.15 368.58-21.55 367.01-22.95 364.51-22.95L364.51-22.95Q362.56-22.95 360.16-22.1L360.16-22.1 358.31-21.2Q359.16-19.5 359.16-17.3L359.16-17.3 359.16 0 356.41 0 356.41-17.15Q356.41-20.2 354.83-21.58 353.26-22.95 350.71-22.95L350.71-22.95Q349.16-22.95 347.51-22.48 345.86-22 344.51-21.25L344.51-21.25 344.51 0 341.71 0 341.71-25.05 344.51-25.05 344.26-23.45Q347.56-25.4 351.01-25.4L351.01-25.4Q352.81-25.4 354.38-24.8 355.96-24.2 357.06-23.05L357.06-23.05Q357.76-23.45 359.16-24.15L359.16-24.15Q362.11-25.5 364.86-25.5L364.86-25.5Q368.41-25.5 370.66-23.33 372.91-21.15 372.91-17.3L372.91-17.3 372.91 0 370.16 0ZM393.06-1.75Q391.25-0.6 388.95 0 386.66 0.6 384.36 0.6L384.36 0.6Q380.66 0.6 378.48-1.23 376.31-3.05 376.31-6.7L376.31-6.7 376.31-16.95Q376.31-21 378.83-23.25 381.36-25.5 385.5-25.5L385.5-25.5Q389.66-25.5 391.98-23.28 394.31-21.05 394.31-17.1L394.31-17.1 394.31-10.6 379.11-9.75 379.11-6.7Q379.11-4.3 380.66-3.1 382.2-1.9 384.7-1.9L384.7-1.9Q388.2-1.9 391.95-3.9L391.95-3.9 393.06-1.75ZM391.5-17.45Q391.5-20.55 389.56-21.83 387.61-23.1 385.45-23.1L385.45-23.1Q382.7-23.1 380.91-21.6 379.11-20.1 379.11-16.9L379.11-16.9 379.11-12.5 391.5-13.1 391.5-17.45ZM414.75-1.75Q412.95-0.6 410.65 0 408.35 0.6 406.05 0.6L406.05 0.6Q402.35 0.6 400.18-1.23 398-3.05 398-6.7L398-6.7 398-16.95Q398-21 400.53-23.25 403.05-25.5 407.2-25.5L407.2-25.5Q411.35-25.5 413.68-23.28 416-21.05 416-17.1L416-17.1 416-10.6 400.8-9.75 400.8-6.7Q400.8-4.3 402.35-3.1 403.9-1.9 406.4-1.9L406.4-1.9Q409.9-1.9 413.65-3.9L413.65-3.9 414.75-1.75ZM413.2-17.45Q413.2-20.55 411.25-21.83 409.3-23.1 407.15-23.1L407.15-23.1Q404.4-23.1 402.6-21.6 400.8-20.1 400.8-16.9L400.8-16.9 400.8-12.5 413.2-13.1 413.2-17.45ZM425.45 0.65Q422.65-0.15 421.4-1.9 420.15-3.65 420.15-6.6L420.15-6.6 420.15-35 422.95-35 422.95-25.05 428.95-25.05 427.75-22.4 422.95-22.4 422.95-6.6Q422.95-2.6 426.25-1.5L426.25-1.5 425.45 0.65ZM434.55-6.35Q434.85-4.1 436.8-2.98 438.75-1.85 441.15-1.85L441.15-1.85Q443.4-1.85 445.25-2.88 447.1-3.9 447.1-6.2L447.1-6.2Q447.1-7.7 446.22-8.68 445.35-9.65 444.05-10.25 442.75-10.85 440.55-11.55L440.55-11.55Q438.1-12.35 436.55-13.05 435-13.75 433.85-15.03 432.7-16.3 432.5-18.25L432.5-18.25 432.45-18.85Q432.45-20.5 433.37-22.08 434.3-23.65 436.22-24.65 438.15-25.65 441.05-25.65L441.05-25.65Q442.65-25.65 443.87-25.33 445.1-25 445.8-24.65 446.5-24.3 446.65-24.2L446.65-24.2 445.7-21.9Q445.55-22 444.97-22.3 444.4-22.6 443.35-22.9 442.3-23.2 441.05-23.2L441.05-23.2Q438.65-23.2 436.95-22.08 435.25-20.95 435.25-18.95L435.25-18.95Q435.25-17.05 436.8-16.05 438.35-15.05 441.55-14.05L441.55-14.05Q444.25-13.15 445.9-12.35 447.55-11.55 448.72-10.08 449.9-8.6 449.9-6.25L449.9-6.25Q449.9-3.25 447.67-1.25 445.45 0.75 441.15 0.75L441.15 0.75Q438.3 0.75 436.22-0.23 434.15-1.2 433.07-2.8 432-4.4 431.9-6.35L431.9-6.35 434.55-6.35ZM484.04-1.75Q482.24-0.6 479.94 0 477.64 0.6 475.34 0.6L475.34 0.6Q471.64 0.6 469.47-1.23 467.29-3.05 467.29-6.7L467.29-6.7 467.29-16.95Q467.29-21 469.82-23.25 472.34-25.5 476.49-25.5L476.49-25.5Q480.64-25.5 482.97-23.28 485.29-21.05 485.29-17.1L485.29-17.1 485.29-10.6 470.09-9.75 470.09-6.7Q470.09-4.3 471.64-3.1 473.19-1.9 475.69-1.9L475.69-1.9Q479.19-1.9 482.94-3.9L482.94-3.9 484.04-1.75ZM482.49-17.45Q482.49-20.55 480.54-21.83 478.59-23.1 476.44-23.1L476.44-23.1Q473.69-23.1 471.89-21.6 470.09-20.1 470.09-16.9L470.09-16.9 470.09-12.5 482.49-13.1 482.49-17.45ZM505.24 0L499.09-9.85 492.94 0 489.64 0 497.44-12.45 489.64-25.05 492.79-25.05 499.09-15.05 505.39-25.05 508.54-25.05 500.69-12.45 508.54 0 505.24 0ZM514.09 10.5L514.09-25.05 516.89-25.05 516.64-22.5Q517.99-23.95 519.81-24.7 521.64-25.45 523.44-25.45L523.44-25.45Q528.09-25.45 530.51-22.75 532.94-20.05 532.94-15.75L532.94-15.75 532.94-8.8Q532.94-4.25 530.39-1.83 527.84 0.6 523.64 0.6L523.64 0.6Q521.49 0.6 519.84 0 518.19-0.6 516.89-2.1L516.89-2.1 516.89 9.4 514.09 10.5ZM530.14-15.95Q530.14-19.6 528.21-21.25 526.29-22.9 523.64-22.9L523.64-22.9Q520.94-22.9 518.99-21.28 517.04-19.65 516.89-16.2L516.89-16.2 516.89-8.3Q516.89-5.05 518.74-3.5 520.59-1.95 523.64-1.95L523.64-1.95Q526.39-1.95 528.26-3.58 530.14-5.2 530.14-8.3L530.14-8.3 530.14-15.95ZM538.48 0L538.48-35 541.28-35 541.28 0 538.48 0ZM567.83-9.2Q567.83-5 565.53-2.25 563.23 0.5 558.58 0.5L558.58 0.5Q553.93 0.5 551.56-2.27 549.18-5.05 549.18-9.2L549.18-9.2 549.18-15.8Q549.18-20.55 551.61-23.08 554.03-25.6 558.58-25.6L558.58-25.6Q562.93-25.6 565.38-22.98 567.83-20.35 567.83-15.8L567.83-15.8 567.83-9.2ZM565.03-15.8Q565.03-19.55 563.31-21.3 561.58-23.05 558.58-23.05L558.58-23.05Q555.48-23.05 553.73-21.3 551.98-19.55 551.98-15.8L551.98-15.8 551.98-8.7Q551.98-5.7 553.76-3.85 555.53-2 558.58-2L558.58-2Q561.68-2 563.36-3.83 565.03-5.65 565.03-8.7L565.03-8.7 565.03-15.8ZM572.53 0L572.53-25.05 575.33-25.05 575.18-23.3Q577.53-25.5 581.33-25.5L581.33-25.5Q582.68-25.5 585.03-25.05L585.03-25.05 584.28-22.5Q582.68-23 580.93-23L580.93-23Q578.63-23 576.98-22.15 575.33-21.3 575.33-19.6L575.33-19.6 575.33 0 572.53 0ZM602.13 0Q596.73 0.55 594.33 0.55L594.33 0.55Q589.08 0.55 585.98-1.4 582.88-3.35 582.88-8.45L582.88-8.45 582.88-12.6Q582.88-17.55 586.33-19.25L586.33-19.25Q587.98-20.1 590.53-20.1L590.53-20.1Q592.88-20.1 595.28-19.33 597.68-18.55 599.33-17.3L599.33-17.3Q599.33-20.05 597.73-21.68 596.13-23.3 591.58-23.3L591.58-23.3 591.73-25.45Q596.53-25.45 598.8-23.93 601.08-22.4 601.6-20.3 602.13-18.2 602.13-14.9L602.13-14.9 602.13 0ZM599.33-15.15Q597.28-16.1 594.95-16.8 592.63-17.5 590.68-17.5L590.68-17.5Q585.63-17.5 585.63-12.45L585.63-12.45 585.63-8.1Q585.63-4.85 587.88-3.38 590.13-1.9 594.28-1.9L594.28-1.9Q596.43-1.9 599.33-2.3L599.33-2.3 599.33-15.15ZM610.12 0.65Q607.32-0.15 606.07-1.9 604.82-3.65 604.82-6.6L604.82-6.6 604.82-35 607.62-35 607.62-25.05 613.62-25.05 612.42-22.4 607.62-22.4 607.62-6.6Q607.62-2.6 610.92-1.5L610.92-1.5 610.12 0.65ZM620.37-32.15Q619.72-32.15 619.2-32.68 618.67-33.2 618.67-33.85L618.67-33.85Q618.67-34.5 619.17-35 619.67-35.5 620.37-35.5L620.37-35.5Q621.07-35.5 621.55-35.02 622.02-34.55 622.02-33.85L622.02-33.85Q622.02-33.15 621.52-32.65 621.02-32.15 620.37-32.15L620.37-32.15ZM618.92 0L618.92-25.05 621.72-25.05 621.72 0 618.92 0ZM648.57-9.2Q648.57-5 646.27-2.25 643.97 0.5 639.32 0.5L639.32 0.5Q634.67 0.5 632.29-2.27 629.92-5.05 629.92-9.2L629.92-9.2 629.92-15.8Q629.92-20.55 632.34-23.08 634.77-25.6 639.32-25.6L639.32-25.6Q643.67-25.6 646.12-22.98 648.57-20.35 648.57-15.8L648.57-15.8 648.57-9.2ZM645.77-15.8Q645.77-19.55 644.04-21.3 642.32-23.05 639.32-23.05L639.32-23.05Q636.22-23.05 634.47-21.3 632.72-19.55 632.72-15.8L632.72-15.8 632.72-8.7Q632.72-5.7 634.49-3.85 636.27-2 639.32-2L639.32-2Q642.42-2 644.09-3.83 645.77-5.65 645.77-8.7L645.77-8.7 645.77-15.8ZM669.12 0L669.12-17.15Q669.12-20.2 667.34-21.58 665.57-22.95 662.77-22.95L662.77-22.95Q661.07-22.95 659.32-22.48 657.57-22 656.22-21.25L656.22-21.25 656.22 0 653.42 0 653.42-25.05 656.22-25.05 656.02-23.35Q657.22-24.4 659.07-24.93 660.92-25.45 662.92-25.45L662.92-25.45Q665.67-25.45 667.62-24.55L667.62-24.55Q669.62-23.65 670.74-21.85 671.87-20.05 671.87-17.3L671.87-17.3 671.87 0 669.12 0ZM677.41 0Q676.76 0 676.26-0.5 675.76-1 675.76-1.65L675.76-1.65Q675.76-2.35 676.26-2.83 676.76-3.3 677.41-3.3L677.41-3.3Q678.11-3.3 678.59-2.83 679.06-2.35 679.06-1.65L679.06-1.65Q679.06-1 678.59-0.5 678.11 0 677.41 0L677.41 0Z" opacity="1" transform="matrix(1,0,0,1,0,0)" fill="#5d7599" class="slogan-text-1" data-fill-palette-color="secondary" id="text-1"></path></svg></g></svg></g></svg></g></svg></g><g transform="matrix(1,0,0,1,50.45746526532978,0)"><svg viewBox="0 0 91.08506946934044 68.00264192679951" height="68.00264192679951" width="91.08506946934044"><g><svg xmlns="http://www.w3.org/2000/svg" xmlns:xlink="http://www.w3.org/1999/xlink" xml:space="preserve" version="1.1" style="shape-rendering:geometricPrecision;text-rendering:geometricPrecision;image-rendering:optimizeQuality;" viewBox="21 123 805 601" x="0" y="0" fill-rule="evenodd" clip-rule="evenodd" height="68.00264192679951" width="91.08506946934044" class="icon-icon-0" data-fill-palette-color="accent" id="icon-0"><g fill="#5d7599" data-fill-palette-color="accent"><path class="" d="M295 489c1 31 15 235 52 235 11 0 19-17 27-42l-13-9-25-183c-14 0-28 0-41-1z m471 30l60-50-29-3-61 43 30 10z m-393-140l-268-105c-17-4-70-8-84-2 4 9 27 33 36 39l283 117 33 238 27 20-2-5 39-206c59 18 118 37 177 53l107 21c5 2 11 1 4-4l-98-63c-54-23-107-44-161-65l129-172 17-14-32 7-207 141z m28 95c-5-2-2-11 3-9l24 9c6 1 3 10-3 8l-24-8z m-7 96c-5-1-3-10 3-8l15 5c5 1 3 10-3 8l-15-5z m-1 28c-6-2-3-10 2-9l13 4c5 2 3 10-3 9l-12-4z m2-55c-5-1-3-10 3-8l19 6c5 1 3 10-3 8l-19-6z m1-31c-5-2-3-10 3-9l23 7c5 2 3 10-3 9l-23-7z m64-142c-5-3-1-10 4-7l22 12c5 3 0 10-5 7l-21-12z m-24 31c-6-3-1-11 4-8l22 12c5 3 1 11-4 8l-22-12z m66-73c-5-3 0-11 5-8l14 8c5 3 0 11-5 8l-14-8z m19-21c-5-2 0-10 5-7l12 7c5 2 0 10-5 7l-12-7z m-38 40c-5-2-1-10 4-7l18 10c5 3 0 10-5 7l-17-10z m211 168l30 18c19 0 39 0 58 0-19-6-37-12-56-18l-32 0z m32 44l7 52 20 8 7-77-26 0c6 8 1 19-8 17z m-583-174c-18 3-96 18-96 38 0 21 78 36 96 39-2-26-2-52 0-77z m1-13c1-4 1-8 2-11l-83-34c-8 24-14 49-15 76 23-17 67-26 96-31z m19-88c20-61 54-118 106-151-73 20-134 66-174 127 5 1 9 1 14 3l54 21z m262-151c46 29 78 76 98 129l51-35c-38-45-90-78-149-94z m119 200c3 13 5 26 6 39 29 5 73 14 97 31-4-52-21-101-48-143l-55 73z m7 52c2 17 2 35 2 52 13 6 26 11 38 16 27-7 56-17 56-30 0-20-78-35-96-38z m-8 136c-17 74-54 153-118 192 90-24 162-88 198-170l-13-3c-22-6-45-12-67-19z m100-44c2-11 3-22 4-33-10 7-23 12-37 17l23 10 10 6z m-374 236c-77-48-115-151-125-238-29-5-73-14-96-31 8 128 98 236 221 269z m-112-344l7-1-6-2-1 3z m126-39c4-63 15-165 43-205-77 13-126 88-151 163l108 42z m-127 53c-2 27-2 54 0 81 36 6 79 10 125 12 0-20-1-40-1-59l-93-39c-10 2-21 3-31 5z m1 94c11 94 64 227 169 245-33-47-42-177-44-233-46-2-89-6-125-12z m212 245c14-3 28-8 40-14l-25-18c-5 12-10 23-15 32z m50-20c60-37 96-115 111-185-28-9-55-18-83-26l-36 188 8 23z m121-270c0-16 0-33-2-49-9-2-18-3-28-4l-25 32c19 7 37 14 55 21z m-3-63c-1-7-2-15-3-22l-16 20c7 1 13 1 19 2z m-25-100c-26-68-73-132-143-144 29 42 39 150 43 213l100-69z m-162 88c11 0 22 0 33 0l16-11c-3-52-18-223-52-223-32 0-47 151-51 212l54 22z m-57 65c0 18 1 36 1 54 13 1 27 1 40 1l-6-40-35-15z" fill="#5d7599" fill-rule="nonzero" data-fill-palette-color="accent"></path></g></svg></g></svg></g><g></g></svg></g></svg></g></svg></g></svg></g><defs></defs></svg><rect width="320" height="360" fill="none" stroke="none" visibility="hidden"></rect></g></svg></g></svg>